<svg width="419.66" height="142.73" overflow="visible" style="display: block;" viewBox="0 0 419.66 142.73" fill="none" xmlns="http://www.w3.org/2000/svg">
<g id="FULL WHITE CDP LOGO">
<g id="Group">
<path id="Vector" d="M182.43 51.46C182.43 51.06 182.76 50.74 183.15 50.74H184.13C184.53 50.74 184.86 51.06 184.86 51.46V51.6C184.86 56.32 181.12 59.15 176.76 59.15C172.4 59.15 169.28 56.28 168.66 51.6C168.26 48.66 168.26 43.61 168.66 40.71C169.21 36.75 171.97 33.16 176.76 33.16C181.55 33.16 184.86 36.72 184.86 40.71V40.86C184.86 41.26 184.53 41.59 184.13 41.59H183.15C182.75 41.59 182.43 41.26 182.43 40.86V40.71C182.43 38.02 180.21 35.48 176.76 35.48C173.31 35.48 171.5 38.06 171.1 40.71C170.66 43.69 170.66 48.62 171.1 51.6C171.39 53.71 172.84 56.83 176.76 56.83C180.68 56.83 182.43 53.75 182.43 51.6V51.46Z" fill="var(--fill-0, white)"/>
<path id="Vector_2" d="M194.19 58.32C194.12 58.65 193.83 58.87 193.5 58.87H192.59C192.01 58.87 191.79 58.47 191.86 58.14L198.8 33.99C198.87 33.66 199.16 33.45 199.49 33.45H201.3C201.63 33.45 201.92 33.67 201.99 33.99L208.92 58.14C209 58.47 208.78 58.87 208.2 58.87H207.29C206.96 58.87 206.68 58.65 206.6 58.32L204.82 52.18C204.71 51.85 204.45 51.67 204.13 51.67H196.65C196.32 51.67 196.07 51.85 195.96 52.18L194.18 58.32H194.19ZM196.92 49.03C196.85 49.32 196.99 49.43 197.21 49.43H203.6C203.82 49.43 203.97 49.32 203.89 49.03L200.59 36.69C200.55 36.54 200.51 36.47 200.44 36.47H200.36C200.29 36.47 200.25 36.54 200.22 36.69L196.92 49.03Z" fill="var(--fill-0, white)"/>
<path id="Vector_3" d="M224.19 45.69C224.23 45.84 224.48 45.87 224.55 45.69L228.25 34.07C228.4 33.64 228.61 33.45 229.01 33.45H231.19C231.59 33.45 231.92 33.78 231.92 34.18V58.15C231.92 58.55 231.59 58.88 231.19 58.88H230.47C230.07 58.88 229.74 58.55 229.74 58.15V37.34C229.74 37.12 229.45 37.05 229.38 37.27L225.64 49.18C225.49 49.62 225.28 49.8 224.88 49.8H223.86C223.46 49.8 223.24 49.62 223.1 49.18L219.36 37.27C219.29 37.05 219 37.12 219 37.34V58.15C219 58.55 218.67 58.88 218.27 58.88H217.54C217.14 58.88 216.81 58.55 216.81 58.15V34.18C216.81 33.78 217.14 33.45 217.54 33.45H219.72C220.12 33.45 220.34 33.63 220.48 34.07L224.18 45.69H224.19Z" fill="var(--fill-0, white)"/>
<path id="Vector_4" d="M253.37 45.9C254.86 47.1 255.95 49.38 255.95 51.46C255.95 55.67 252.5 58.87 248.33 58.87H241.98C241.58 58.87 241.25 58.54 241.25 58.14V34.17C241.25 33.77 241.58 33.44 241.98 33.44H248.33C252.25 33.44 255.45 36.27 255.45 40.19C255.45 41.86 254.76 43.89 253.38 45.09C253.09 45.34 253.09 45.67 253.38 45.89L253.37 45.9ZM243.86 35.78C243.64 35.78 243.5 35.92 243.5 36.14V44.09C243.5 44.31 243.65 44.45 243.86 44.45H248.87C251.27 44.45 253.16 42.53 253.16 40.13C253.16 37.73 251.27 35.77 248.87 35.77H243.86V35.78ZM248.73 56.54C251.49 56.54 253.7 54.32 253.7 51.56C253.7 48.8 251.49 46.59 248.73 46.59H243.86C243.64 46.59 243.5 46.73 243.5 46.95V56.17C243.5 56.39 243.65 56.53 243.86 56.53H248.73V56.54Z" fill="var(--fill-0, white)"/>
<path id="Vector_5" d="M267.29 48.7C267.07 48.7 266.93 48.85 266.93 49.06V58.14C266.93 58.54 266.6 58.87 266.2 58.87H265.33C264.93 58.87 264.6 58.54 264.6 58.14V34.17C264.6 33.77 264.93 33.44 265.33 33.44H271.5C275.71 33.44 279.13 36.85 279.13 41.06C279.13 44.33 277.42 46.32 274.81 47.96C274.37 48.25 274.27 48.58 274.55 49.12L279.13 57.76C279.42 58.3 279.16 58.85 278.44 58.85H277.64C276.62 58.85 276.33 57.58 275.93 56.82L271.94 49.12C271.83 48.9 271.65 48.68 271.25 48.68H267.3L267.29 48.7ZM267.29 35.78C267.07 35.78 266.93 35.92 266.93 36.14V46.02C266.93 46.24 267.08 46.38 267.29 46.38H271.5C274.41 46.38 276.8 43.98 276.8 41.08C276.8 38.18 274.4 35.78 271.5 35.78H267.29Z" fill="var(--fill-0, white)"/>
<path id="Vector_6" d="M293.98 35.99C293.98 35.77 293.84 35.63 293.62 35.63H289.08C288.68 35.63 288.35 35.3 288.35 34.91V34.18C288.35 33.78 288.68 33.45 289.08 33.45H301.24C301.64 33.45 301.96 33.78 301.96 34.18V34.91C301.96 35.31 301.63 35.63 301.24 35.63H296.7C296.48 35.63 296.33 35.78 296.33 35.99V56.29C296.33 56.51 296.48 56.65 296.7 56.65H301.6C302 56.65 302.33 56.98 302.33 57.38V58.14C302.33 58.54 302 58.87 301.6 58.87H288.71C288.31 58.87 287.98 58.54 287.98 58.14V57.38C287.98 56.98 288.31 56.65 288.71 56.65H293.61C293.83 56.65 293.97 56.51 293.97 56.29V35.99H293.98Z" fill="var(--fill-0, white)"/>
<path id="Vector_7" d="M311.67 58.87C311.27 58.87 310.94 58.54 310.94 58.14V34.17C310.94 33.77 311.26 33.44 311.67 33.44H318.21C323 33.44 325.76 36.75 326.31 40.7C326.71 43.6 326.71 48.65 326.31 51.59C325.69 56.27 322.57 58.85 318.21 58.85H311.67V58.87ZM318.2 56.54C322.12 56.54 323.57 53.71 323.86 51.6C324.3 48.62 324.3 43.68 323.86 40.71C323.46 38.06 321.65 35.77 318.2 35.77H313.62C313.4 35.77 313.26 35.91 313.26 36.13V56.17C313.26 56.39 313.41 56.53 313.62 56.53H318.2V56.54Z" fill="var(--fill-0, white)"/>
<path id="Vector_8" d="M348.67 47.68C348.67 47.46 348.53 47.32 348.31 47.32H343.88C343.48 47.32 343.15 46.99 343.15 46.6V45.73C343.15 45.33 343.48 45 343.88 45H350.27C350.67 45 350.99 45.33 350.99 45.73V51.61C350.99 56.33 347.25 59.16 342.89 59.16C338.53 59.16 335.41 56.29 334.79 51.61C334.39 48.67 334.39 43.62 334.79 40.72C335.34 36.76 338.1 33.17 342.89 33.17C347.68 33.17 350.99 36.54 350.99 40.72V40.87C350.99 41.27 350.66 41.6 350.27 41.6H349.29C348.89 41.6 348.56 41.27 348.56 40.87V40.72C348.56 37.7 346.35 35.49 342.9 35.49C339.45 35.49 337.63 38.07 337.23 40.72C336.79 43.7 336.79 48.63 337.23 51.61C337.52 53.72 338.97 56.84 342.9 56.84C346.83 56.84 348.67 53.76 348.67 51.61V47.69V47.68Z" fill="var(--fill-0, white)"/>
<path id="Vector_9" d="M362.21 44.38C362.21 44.6 362.35 44.74 362.57 44.74H372.3C372.71 44.74 373.03 45.07 373.03 45.47V46.3C373.03 46.7 372.7 47.03 372.3 47.03H362.57C362.35 47.03 362.21 47.18 362.21 47.39V56.18C362.21 56.4 362.35 56.54 362.57 56.54H372.77C373.17 56.54 373.5 56.87 373.5 57.27V58.14C373.5 58.54 373.17 58.87 372.77 58.87H360.61C360.21 58.87 359.88 58.54 359.88 58.14V34.17C359.88 33.77 360.21 33.44 360.61 33.44H372.7C373.1 33.44 373.43 33.77 373.43 34.17V35.04C373.43 35.44 373.1 35.77 372.7 35.77H362.57C362.35 35.77 362.21 35.91 362.21 36.13V44.37V44.38Z" fill="var(--fill-0, white)"/>
<path id="Vector_10" d="M170.29 100.55C169.89 100.55 169.56 100.22 169.56 99.82V75.86C169.56 75.46 169.89 75.13 170.29 75.13H176.83C181.62 75.13 184.38 78.43 184.93 82.39C185.33 85.3 185.33 90.34 184.93 93.29C184.31 97.97 181.19 100.55 176.83 100.55H170.29ZM176.82 98.22C180.74 98.22 182.19 95.39 182.48 93.28C182.92 90.3 182.92 85.36 182.48 82.38C182.08 79.73 180.26 77.44 176.82 77.44H172.24C172.02 77.44 171.87 77.59 171.87 77.8V97.84C171.87 98.06 172.02 98.2 172.24 98.2H176.82V98.22Z" fill="var(--fill-0, white)"/>
<path id="Vector_11" d="M196.09 86.06C196.09 86.28 196.23 86.42 196.45 86.42H206.18C206.58 86.42 206.91 86.75 206.91 87.15V87.98C206.91 88.38 206.58 88.71 206.18 88.71H196.45C196.23 88.71 196.09 88.86 196.09 89.07V97.86C196.09 98.08 196.23 98.22 196.45 98.22H206.65C207.05 98.22 207.38 98.55 207.38 98.94V99.81C207.38 100.21 207.05 100.54 206.65 100.54H194.49C194.09 100.54 193.76 100.21 193.76 99.81V75.85C193.76 75.45 194.09 75.12 194.49 75.12H206.58C206.98 75.12 207.31 75.45 207.31 75.85V76.72C207.31 77.12 206.98 77.45 206.58 77.45H196.45C196.23 77.45 196.09 77.6 196.09 77.81V86.05V86.06Z" fill="var(--fill-0, white)"/>
<path id="Vector_12" d="M222.84 87.91C220.19 87.29 216.74 85.91 216.74 81.66C216.74 77.41 220.11 74.83 223.86 74.83C228.14 74.83 230.94 77.92 230.94 81.66V82.13C230.94 82.53 230.61 82.86 230.21 82.86H229.34C228.94 82.86 228.61 82.53 228.61 82.13V81.66C228.61 79.04 226.58 77.16 223.86 77.16C220.63 77.16 219.1 79.41 219.1 81.66C219.1 84.93 222.51 85.25 225.02 86.02C228.94 87.22 231.66 88.82 231.66 93.29C231.66 98.04 227.96 100.84 223.85 100.84C219.17 100.84 216.04 97.43 216.04 93.29V92.71C216.04 92.31 216.37 91.98 216.77 91.98H217.68C218.08 91.98 218.4 92.31 218.4 92.71V93.29C218.4 95.83 220.25 98.52 223.85 98.52C227.15 98.52 229.26 96.38 229.3 93.29C229.34 89.98 226.97 88.89 222.83 87.91H222.84Z" fill="var(--fill-0, white)"/>
<path id="Vector_13" d="M246.04 77.67C246.04 77.45 245.9 77.31 245.68 77.31H241.14C240.74 77.31 240.42 76.98 240.42 76.58V75.86C240.42 75.46 240.74 75.13 241.14 75.13H253.3C253.7 75.13 254.02 75.46 254.02 75.86V76.58C254.02 76.98 253.69 77.31 253.3 77.31H248.76C248.55 77.31 248.4 77.45 248.4 77.67V97.97C248.4 98.19 248.54 98.33 248.76 98.33H253.66C254.06 98.33 254.38 98.66 254.38 99.06V99.82C254.38 100.22 254.05 100.55 253.66 100.55H240.77C240.37 100.55 240.04 100.22 240.04 99.82V99.06C240.04 98.66 240.37 98.33 240.77 98.33H245.67C245.89 98.33 246.03 98.19 246.03 97.97V77.67H246.04Z" fill="var(--fill-0, white)"/>
<path id="Vector_14" d="M276.84 89.36C276.84 89.14 276.7 89 276.48 89H272.05C271.65 89 271.32 88.67 271.32 88.27V87.4C271.32 87 271.65 86.67 272.05 86.67H278.44C278.84 86.67 279.17 87 279.17 87.4V93.28C279.17 98 275.43 100.83 271.07 100.83C266.71 100.83 263.59 97.96 262.97 93.28C262.57 90.34 262.57 85.29 262.97 82.38C263.51 78.42 266.27 74.83 271.07 74.83C275.87 74.83 279.17 78.21 279.17 82.38V82.53C279.17 82.93 278.84 83.26 278.44 83.26H277.46C277.06 83.26 276.74 82.93 276.74 82.53V82.38C276.74 79.37 274.52 77.15 271.08 77.15C267.64 77.15 265.82 79.73 265.42 82.38C264.99 85.36 264.99 90.29 265.42 93.28C265.71 95.38 267.16 98.51 271.08 98.51C275 98.51 276.85 95.42 276.85 93.28V89.36H276.84Z" fill="var(--fill-0, white)"/>
<path id="Vector_15" d="M302.59 99.82C302.59 100.22 302.26 100.55 301.86 100.55H299.97C299.57 100.55 299.43 100.44 299.21 99.93L290.53 79.09C290.46 78.94 290.24 78.98 290.24 79.16V99.82C290.24 100.22 289.91 100.55 289.51 100.55H288.79C288.39 100.55 288.06 100.22 288.06 99.82V75.86C288.06 75.46 288.39 75.13 288.79 75.13H290.68C291.08 75.13 291.23 75.24 291.44 75.75L300.12 96.41C300.19 96.55 300.41 96.52 300.41 96.34V75.86C300.41 75.46 300.74 75.13 301.14 75.13H301.87C302.27 75.13 302.6 75.46 302.6 75.86V99.82H302.59Z" fill="var(--fill-0, white)"/>
<path id="Vector_16" d="M171.97 141.5C171.97 141.9 171.64 142.22 171.25 142.22H170.38C169.98 142.22 169.65 141.9 169.65 141.5V117.53C169.65 117.13 169.98 116.8 170.38 116.8H176.55C180.76 116.8 184.17 120.21 184.17 124.42C184.17 128.63 180.76 132.05 176.55 132.05H172.34C172.12 132.05 171.97 132.19 171.97 132.41V141.49V141.5ZM172.34 119.13C172.12 119.13 171.97 119.27 171.97 119.49V129.36C171.97 129.58 172.12 129.72 172.34 129.72H176.55C179.45 129.72 181.85 127.33 181.85 124.42C181.85 121.51 179.45 119.12 176.55 119.12H172.34V119.13Z" fill="var(--fill-0, white)"/>
<path id="Vector_17" d="M192.94 141.68C192.87 142.01 192.58 142.22 192.25 142.22H191.34C190.76 142.22 190.54 141.82 190.61 141.5L197.54 117.35C197.61 117.02 197.9 116.81 198.23 116.81H200.04C200.36 116.81 200.66 117.02 200.73 117.35L207.67 141.5C207.74 141.83 207.52 142.22 206.94 142.22H206.03C205.7 142.22 205.41 142.01 205.34 141.68L203.56 135.54C203.45 135.21 203.2 135.03 202.87 135.03H195.39C195.06 135.03 194.81 135.21 194.7 135.54L192.92 141.68H192.94ZM195.66 132.39C195.59 132.68 195.73 132.79 195.95 132.79H202.34C202.56 132.79 202.7 132.68 202.63 132.39L199.33 120.04C199.29 119.9 199.25 119.82 199.19 119.82H199.12C199.05 119.82 199.01 119.89 198.98 120.04L195.67 132.39H195.66Z" fill="var(--fill-0, white)"/>
<path id="Vector_18" d="M219.26 132.06C219.04 132.06 218.89 132.2 218.89 132.42V141.5C218.89 141.9 218.56 142.22 218.16 142.22H217.29C216.89 142.22 216.57 141.9 216.57 141.5V117.53C216.57 117.13 216.9 116.8 217.29 116.8H223.46C227.67 116.8 231.08 120.21 231.08 124.42C231.08 127.69 229.38 129.69 226.76 131.32C226.32 131.61 226.22 131.94 226.51 132.48L231.08 141.12C231.37 141.66 231.12 142.21 230.39 142.21H229.59C228.57 142.21 228.28 140.94 227.88 140.18L223.88 132.48C223.77 132.26 223.59 132.05 223.19 132.05H219.24L219.26 132.06ZM219.26 119.13C219.04 119.13 218.89 119.27 218.89 119.49V129.36C218.89 129.58 219.04 129.72 219.26 129.72H223.47C226.37 129.72 228.77 127.33 228.77 124.42C228.77 121.51 226.37 119.12 223.47 119.12H219.26V119.13Z" fill="var(--fill-0, white)"/>
<path id="Vector_19" d="M239.52 119.13C239.12 119.13 238.79 118.8 238.79 118.41V117.54C238.79 117.14 239.12 116.81 239.52 116.81H254.77C255.17 116.81 255.5 117.14 255.5 117.54V118.41C255.5 118.81 255.17 119.13 254.77 119.13H248.71C248.49 119.13 248.35 119.27 248.35 119.49V141.49C248.35 141.89 248.02 142.21 247.63 142.21H246.72C246.32 142.21 245.99 141.89 245.99 141.49V119.49C245.99 119.27 245.85 119.13 245.63 119.13H239.53H239.52Z" fill="var(--fill-0, white)"/>
<path id="Vector_20" d="M278.24 141.5C278.24 141.9 277.91 142.22 277.51 142.22H275.62C275.22 142.22 275.07 142.11 274.86 141.6L266.18 120.76C266.11 120.62 265.89 120.65 265.89 120.83V141.49C265.89 141.89 265.57 142.21 265.16 142.21H264.43C264.03 142.21 263.71 141.89 263.71 141.49V117.52C263.71 117.12 264.04 116.79 264.43 116.79H266.32C266.72 116.79 266.86 116.9 267.08 117.41L275.76 138.07C275.83 138.21 276.05 138.18 276.05 138V117.52C276.05 117.12 276.38 116.79 276.78 116.79H277.51C277.91 116.79 278.24 117.12 278.24 117.52V141.49V141.5Z" fill="var(--fill-0, white)"/>
<path id="Vector_21" d="M290.5 127.74C290.5 127.95 290.65 128.1 290.86 128.1H300.59C300.99 128.1 301.31 128.43 301.31 128.83V129.66C301.31 130.06 300.98 130.39 300.59 130.39H290.86C290.64 130.39 290.5 130.54 290.5 130.75V139.54C290.5 139.76 290.65 139.9 290.86 139.9H301.06C301.46 139.9 301.79 140.23 301.79 140.63V141.5C301.79 141.9 301.46 142.22 301.06 142.22H288.9C288.5 142.22 288.17 141.9 288.17 141.5V117.53C288.17 117.13 288.5 116.8 288.9 116.8H300.99C301.39 116.8 301.72 117.13 301.72 117.53V118.4C301.72 118.8 301.39 119.12 300.99 119.12H290.86C290.64 119.12 290.5 119.26 290.5 119.48V127.72V127.74Z" fill="var(--fill-0, white)"/>
<path id="Vector_22" d="M313.58 132.06C313.36 132.06 313.22 132.2 313.22 132.42V141.5C313.22 141.9 312.89 142.22 312.5 142.22H311.63C311.23 142.22 310.9 141.9 310.9 141.5V117.53C310.9 117.13 311.23 116.8 311.63 116.8H317.8C322.01 116.8 325.42 120.21 325.42 124.42C325.42 127.69 323.71 129.69 321.1 131.32C320.66 131.61 320.56 131.94 320.85 132.48L325.42 141.12C325.71 141.66 325.46 142.21 324.73 142.21H323.93C322.92 142.21 322.62 140.94 322.23 140.18L318.23 132.48C318.12 132.26 317.94 132.05 317.54 132.05H313.58V132.06ZM313.58 119.13C313.36 119.13 313.22 119.27 313.22 119.49V129.36C313.22 129.58 313.37 129.72 313.58 129.72H317.79C320.69 129.72 323.09 127.33 323.09 124.42C323.09 121.51 320.69 119.12 317.79 119.12H313.58V119.13Z" fill="var(--fill-0, white)"/>
<path id="Vector_23" d="M340.43 129.59C337.78 128.97 334.33 127.59 334.33 123.34C334.33 119.09 337.7 116.51 341.45 116.51C345.74 116.51 348.53 119.6 348.53 123.34V123.81C348.53 124.21 348.2 124.54 347.8 124.54H346.93C346.53 124.54 346.2 124.21 346.2 123.81V123.34C346.2 120.73 344.17 118.84 341.44 118.84C338.21 118.84 336.69 121.09 336.69 123.34C336.69 126.61 340.1 126.94 342.61 127.7C346.53 128.9 349.25 130.5 349.25 134.96C349.25 139.72 345.54 142.51 341.44 142.51C336.76 142.51 333.64 139.1 333.64 134.96V134.38C333.64 133.98 333.97 133.65 334.36 133.65H335.27C335.67 133.65 336 133.98 336 134.38V134.96C336 137.5 337.85 140.19 341.45 140.19C344.75 140.19 346.86 138.05 346.9 134.96C346.93 131.66 344.57 130.57 340.43 129.59Z" fill="var(--fill-0, white)"/>
<path id="Vector_24" d="M360.63 127.7C360.63 127.92 360.78 128.06 360.99 128.06H370.5C370.72 128.06 370.86 127.92 370.86 127.7V117.53C370.86 117.13 371.19 116.8 371.59 116.8H372.46C372.86 116.8 373.19 117.13 373.19 117.53V141.5C373.19 141.9 372.86 142.22 372.46 142.22H371.59C371.19 142.22 370.86 141.9 370.86 141.5V130.75C370.86 130.53 370.72 130.39 370.5 130.39H360.99C360.78 130.39 360.63 130.54 360.63 130.75V141.5C360.63 141.9 360.3 142.22 359.9 142.22H359.03C358.63 142.22 358.3 141.9 358.3 141.5V117.53C358.3 117.13 358.63 116.8 359.03 116.8H359.9C360.3 116.8 360.63 117.13 360.63 117.53V127.7Z" fill="var(--fill-0, white)"/>
<path id="Vector_25" d="M387.9 119.35C387.9 119.13 387.76 118.99 387.54 118.99H383C382.6 118.99 382.27 118.66 382.27 118.27V117.54C382.27 117.14 382.6 116.81 383 116.81H395.16C395.56 116.81 395.89 117.14 395.89 117.54V118.27C395.89 118.67 395.56 118.99 395.16 118.99H390.62C390.4 118.99 390.26 119.13 390.26 119.35V139.65C390.26 139.87 390.41 140.01 390.62 140.01H395.52C395.92 140.01 396.25 140.34 396.25 140.74V141.5C396.25 141.9 395.92 142.22 395.52 142.22H382.63C382.23 142.22 381.9 141.9 381.9 141.5V140.74C381.9 140.34 382.23 140.01 382.63 140.01H387.53C387.75 140.01 387.89 139.87 387.89 139.65V119.35H387.9Z" fill="var(--fill-0, white)"/>
<path id="Vector_26" d="M407.46 141.5C407.46 141.9 407.13 142.22 406.74 142.22H405.87C405.47 142.22 405.14 141.9 405.14 141.5V117.53C405.14 117.13 405.47 116.8 405.87 116.8H412.04C416.25 116.8 419.66 120.21 419.66 124.42C419.66 128.63 416.24 132.05 412.04 132.05H407.83C407.61 132.05 407.47 132.19 407.47 132.41V141.49L407.46 141.5ZM407.82 119.13C407.6 119.13 407.46 119.27 407.46 119.49V129.36C407.46 129.58 407.61 129.72 407.82 129.72H412.03C414.94 129.72 417.33 127.33 417.33 124.42C417.33 121.51 414.94 119.12 412.03 119.12H407.82V119.13Z" fill="var(--fill-0, white)"/>
</g>
<path id="Vector_27" d="M142.72 38.4C142.72 59.58 125.49 76.81 104.32 76.81H76.81V137.28C76.81 140.28 74.37 142.73 71.37 142.73H38.41C17.23 142.72 0 125.5 0 104.32C0 83.14 17.23 65.92 38.4 65.92H65.91V5.45C65.91 2.45 68.35 0 71.36 0H104.32C125.5 0 142.73 17.23 142.73 38.4H142.72ZM137.28 33.96C134.83 33.96 132.84 35.95 132.84 38.41C132.84 40.87 134.83 42.86 137.28 42.86C139.73 42.86 141.73 40.87 141.73 38.41C141.73 35.95 139.73 33.96 137.28 33.96ZM76.81 65.92H104.32C119.49 65.92 131.83 53.58 131.83 38.41C131.83 23.24 119.49 10.9 104.32 10.9H76.81V65.92ZM66.92 5.45C66.92 7.9 68.91 9.9 71.37 9.9H75.81V5.45C75.81 3 73.82 1 71.37 1C68.92 1 66.92 2.99 66.92 5.45ZM5.45 108.77C7.9 108.77 9.89 106.78 9.89 104.32C9.89 101.86 7.9 99.87 5.45 99.87C3 99.87 1 101.86 1 104.32C1 106.78 2.99 108.77 5.45 108.77ZM65.92 76.81H38.41C23.24 76.81 10.9 89.15 10.9 104.32C10.9 119.49 23.24 131.83 38.41 131.83H65.92V76.81ZM75.81 137.28C75.81 134.83 73.82 132.83 71.37 132.83H66.92V137.28C66.92 139.73 68.91 141.73 71.37 141.73C73.83 141.73 75.81 139.74 75.81 137.28ZM71.35 66.93C68.9 66.93 66.92 68.91 66.92 71.36C66.92 73.81 68.9 75.79 71.35 75.79C73.8 75.79 75.78 73.81 75.78 71.36C75.78 68.91 73.8 66.93 71.35 66.93Z" fill="var(--fill-0, white)"/>
</g>
</svg>
